RBDS019runT25_grf
version=1
nRows=27
nColumns=19
inDegrees=no
endheader
time	ground_force_r_vx	ground_force_r_vy	ground_force_r_vz	ground_force_r_px	ground_force_r_py	ground_force_r_pz	ground_force_r_mx	ground_force_r_my	ground_force_r_mz	ground_force_l_vx	ground_force_l_vy	ground_force_l_vz	ground_force_l_px	ground_force_l_py	ground_force_l_pz	ground_force_l_mx	ground_force_l_my	ground_force_l_mz
     22.49800000	    -69.48723950	   1319.99799279	    -79.34175878	      2.26283795	      0.00000000	      1.09568759	      0.00000000	      2.40033987	     -0.00000000	      0.00000000	      0.00000000	      0.00000000	      0.00000000	      0.00000000	      0.00000000	      0.00000000	      0.00000000	      0.00000000
     22.49900000	    -65.45454283	   1323.60125074	    -78.71696671	      2.26053473	      0.00000000	      1.09559706	      0.00000000	      2.44893273	     -0.00000000	      0.00000000	      0.00000000	      0.00000000	      0.00000000	      0.00000000	      0.00000000	      0.00000000	      0.00000000	      0.00000000
     22.50000000	    -61.42184616	   1327.20450868	    -78.09217463	      2.25823152	      0.00000000	      1.09550653	      0.00000000	      2.49752559	     -0.00000000	      0.00000000	      0.00000000	      0.00000000	      0.00000000	      0.00000000	      0.00000000	      0.00000000	      0.00000000	      0.00000000
     22.50100000	    -57.24759467	   1329.89944247	    -77.29418329	      2.25589706	      0.00000000	      1.09539839	      0.00000000	      2.54311297	     -0.00000000	      0.00000000	      0.00000000	      0.00000000	      0.00000000	      0.00000000	      0.00000000	      0.00000000	      0.00000000	      0.00000000
     22.50200000	    -53.07334318	   1332.59437625	    -76.49619195	      2.25356260	      0.00000000	      1.09529025	      0.00000000	      2.58870034	     -0.00000000	      0.00000000	      0.00000000	      0.00000000	      0.00000000	      0.00000000	      0.00000000	      0.00000000	      0.00000000	      0.00000000
     22.50300000	    -48.89909168	   1335.28931004	    -75.69820061	      2.25122814	      0.00000000	      1.09518211	      0.00000000	      2.63428772	     -0.00000000	      0.00000000	      0.00000000	      0.00000000	      0.00000000	      0.00000000	      0.00000000	      0.00000000	      0.00000000	      0.00000000
     22.50400000	    -44.67373431	   1337.31610124	    -74.80368406	      2.24887944	      0.00000000	      1.09506349	      0.00000000	      2.67615493	     -0.00000000	      0.00000000	      0.00000000	      0.00000000	      0.00000000	      0.00000000	      0.00000000	      0.00000000	      0.00000000	      0.00000000
     22.50500000	    -40.42282399	   1339.00882116	    -73.86090490	      2.24652361	      0.00000000	      1.09493962	      0.00000000	      2.71616207	     -0.00000000	      0.00000000	      0.00000000	      0.00000000	      0.00000000	      0.00000000	      0.00000000	      0.00000000	      0.00000000	      0.00000000
     22.50600000	    -36.17191367	   1340.70154107	    -72.91812575	      2.24416778	      0.00000000	      1.09481576	      0.00000000	      2.75616920	     -0.00000000	      0.00000000	      0.00000000	      0.00000000	      0.00000000	      0.00000000	      0.00000000	      0.00000000	      0.00000000	      0.00000000
     22.50700000	    -31.91584656	   1342.03343074	    -71.93690706	      2.24180770	      0.00000000	      1.09468735	      0.00000000	      2.79351791	     -0.00000000	      0.00000000	      0.00000000	      0.00000000	      0.00000000	      0.00000000	      0.00000000	      0.00000000	      0.00000000	      0.00000000
     22.50800000	    -27.64946590	   1342.64365990	    -70.87880928	      2.23943910	      0.00000000	      1.09454986	      0.00000000	      2.82554974	     -0.00000000	      0.00000000	      0.00000000	      0.00000000	      0.00000000	      0.00000000	      0.00000000	      0.00000000	      0.00000000	      0.00000000
     22.50900000	    -23.38308523	   1343.25388907	    -69.82071150	      2.23707049	      0.00000000	      1.09441238	      0.00000000	      2.85758158	     -0.00000000	      0.00000000	      0.00000000	      0.00000000	      0.00000000	      0.00000000	      0.00000000	      0.00000000	      0.00000000	      0.00000000
     22.51000000	    -19.11670456	   1343.86411823	    -68.76261373	      2.23470189	      0.00000000	      1.09427489	      0.00000000	      2.88961342	     -0.00000000	      0.00000000	      0.00000000	      0.00000000	      0.00000000	      0.00000000	      0.00000000	      0.00000000	      0.00000000	      0.00000000
     22.51100000	    -14.89129757	   1343.32696361	    -67.61869086	      2.23232770	      0.00000000	      1.09412604	      0.00000000	      2.91155469	     -0.00000000	      0.00000000	      0.00000000	      0.00000000	      0.00000000	      0.00000000	      0.00000000	      0.00000000	      0.00000000	      0.00000000
     22.51200000	    -10.66589058	   1342.78980898	    -66.47476799	      2.22995351	      0.00000000	      1.09397719	      0.00000000	      2.93349596	     -0.00000000	      0.00000000	      0.00000000	      0.00000000	      0.00000000	      0.00000000	      0.00000000	      0.00000000	      0.00000000	      0.00000000
     22.51300000	     -6.44048359	   1342.25265436	    -65.33084512	      2.22757931	      0.00000000	      1.09382834	      0.00000000	      2.95543723	     -0.00000000	      0.00000000	      0.00000000	      0.00000000	      0.00000000	      0.00000000	      0.00000000	      0.00000000	      0.00000000	      0.00000000
     22.51400000	     -2.27637651	   1340.91834061	    -64.14876181	      2.22520518	      0.00000000	      1.09367347	      0.00000000	      2.96948418	     -0.00000000	      0.00000000	      0.00000000	      0.00000000	      0.00000000	      0.00000000	      0.00000000	      0.00000000	      0.00000000	      0.00000000
     22.51500000	      1.85708062	   1339.18544730	    -62.94759828	      2.22283108	      0.00000000	      1.09351560	      0.00000000	      2.97958396	     -0.00000000	      0.00000000	      0.00000000	      0.00000000	      0.00000000	      0.00000000	      0.00000000	      0.00000000	      0.00000000	      0.00000000
     22.51600000	      5.99053774	   1337.45255399	    -61.74643474	      2.22045699	      0.00000000	      1.09335773	     -0.00000000	      2.98968373	     -0.00000000	      0.00000000	      0.00000000	      0.00000000	      0.00000000	      0.00000000	      0.00000000	      0.00000000	      0.00000000	      0.00000000
     22.51700000	     10.07831969	   1335.31066915	    -60.53514856	      2.21808432	      0.00000000	      1.09319763	     -0.00000000	      2.99539592	     -0.00000000	      0.00000000	      0.00000000	      0.00000000	      0.00000000	      0.00000000	      0.00000000	      0.00000000	      0.00000000	      0.00000000
     22.51800000	     14.07475125	   1332.35080125	    -59.30361709	      2.21571450	      0.00000000	      1.09303310	     -0.00000000	      2.99233291	     -0.00000000	      0.00000000	      0.00000000	      0.00000000	      0.00000000	      0.00000000	      0.00000000	      0.00000000	      0.00000000	      0.00000000
     22.51900000	     18.07118282	   1329.39093335	    -58.07208562	      2.21334469	      0.00000000	      1.09286858	     -0.00000000	      2.98926990	     -0.00000000	      0.00000000	      0.00000000	      0.00000000	      0.00000000	      0.00000000	      0.00000000	      0.00000000	      0.00000000	      0.00000000
     22.52000000	     22.06761439	   1326.43106545	    -56.84055415	      2.21097487	      0.00000000	      1.09270405	     -0.00000000	      2.98620689	     -0.00000000	      0.00000000	      0.00000000	      0.00000000	      0.00000000	      0.00000000	      0.00000000	      0.00000000	      0.00000000	      0.00000000
     22.52100000	     25.88802007	   1322.23017018	    -55.60316631	      2.20861209	      0.00000000	      1.09253520	     -0.00000000	      2.96913288	     -0.00000000	      0.00000000	      0.00000000	      0.00000000	      0.00000000	      0.00000000	      0.00000000	      0.00000000	      0.00000000	      0.00000000
     22.52200000	     29.70842575	   1318.02927491	    -54.36577846	      2.20624931	      0.00000000	      1.09236636	     -0.00000000	      2.95205887	     -0.00000000	      0.00000000	      0.00000000	      0.00000000	      0.00000000	      0.00000000	      0.00000000	      0.00000000	      0.00000000	      0.00000000
     22.52300000	     33.52883143	   1313.82837964	    -53.12839062	      2.20388653	      0.00000000	      1.09219751	     -0.00000000	      2.93498485	     -0.00000000	      0.00000000	      0.00000000	      0.00000000	      0.00000000	      0.00000000	      0.00000000	      0.00000000	      0.00000000	      0.00000000
     22.52400000	     37.20990843	   1308.80196196	    -51.90154249	      2.20152938	      0.00000000	      1.09202731	     -0.00000000	      2.90833365	     -0.00000000	      0.00000000	      0.00000000	      0.00000000	      0.00000000	      0.00000000	      0.00000000	      0.00000000	      0.00000000	      0.00000000
